<mxfile host="Electron" modified="2024-02-28T16:27:06.455Z" agent="Mozilla/5.0 (X11; Linux x86_64) AppleWebKit/537.36 (KHTML, like Gecko) draw.io/22.0.3 Chrome/118.0.5993.159 Electron/27.3.2 Safari/537.36" etag="6DZKgDZ4mCLQRmm5uLZT" version="22.0.3" type="device">
  <diagram name="Page-1" id="1r7K75wsprvoej7u1i_L">
    <mxGraphModel dx="1434" dy="849" grid="1" gridSize="10" guides="1" tooltips="1" connect="1" arrows="1" fold="1" page="1" pageScale="1" pageWidth="850" pageHeight="1100" math="0" shadow="0">
      <root>
        <mxCell id="0" />
        <mxCell id="1" parent="0" />
        <mxCell id="7cd46bf9U025dehdsbxX-6" style="edgeStyle=orthogonalEdgeStyle;rounded=0;orthogonalLoop=1;jettySize=auto;html=1;entryX=0.5;entryY=1;entryDx=0;entryDy=0;elbow=vertical;strokeWidth=2;" edge="1" parent="1" source="7cd46bf9U025dehdsbxX-1" target="7cd46bf9U025dehdsbxX-4">
          <mxGeometry relative="1" as="geometry" />
        </mxCell>
        <mxCell id="7cd46bf9U025dehdsbxX-1" value="2" style="ellipse;whiteSpace=wrap;html=1;aspect=fixed;fontSize=40;" vertex="1" parent="1">
          <mxGeometry x="245" y="380" width="80" height="80" as="geometry" />
        </mxCell>
        <mxCell id="7cd46bf9U025dehdsbxX-5" style="edgeStyle=orthogonalEdgeStyle;rounded=0;orthogonalLoop=1;jettySize=auto;html=1;entryX=0.5;entryY=0;entryDx=0;entryDy=0;strokeWidth=2;" edge="1" parent="1" source="7cd46bf9U025dehdsbxX-2" target="7cd46bf9U025dehdsbxX-4">
          <mxGeometry relative="1" as="geometry" />
        </mxCell>
        <mxCell id="7cd46bf9U025dehdsbxX-2" value="1" style="ellipse;whiteSpace=wrap;html=1;aspect=fixed;fontSize=40;" vertex="1" parent="1">
          <mxGeometry x="245" y="220" width="80" height="80" as="geometry" />
        </mxCell>
        <mxCell id="7cd46bf9U025dehdsbxX-3" value="3" style="ellipse;whiteSpace=wrap;html=1;aspect=fixed;fontSize=40;" vertex="1" parent="1">
          <mxGeometry x="525" y="300" width="80" height="80" as="geometry" />
        </mxCell>
        <mxCell id="7cd46bf9U025dehdsbxX-7" style="edgeStyle=orthogonalEdgeStyle;rounded=0;orthogonalLoop=1;jettySize=auto;html=1;strokeWidth=2;" edge="1" parent="1" source="7cd46bf9U025dehdsbxX-4" target="7cd46bf9U025dehdsbxX-3">
          <mxGeometry relative="1" as="geometry" />
        </mxCell>
        <mxCell id="7cd46bf9U025dehdsbxX-4" value="+" style="rounded=0;whiteSpace=wrap;html=1;fontSize=40;" vertex="1" parent="1">
          <mxGeometry x="365" y="300" width="80" height="80" as="geometry" />
        </mxCell>
        <mxCell id="7cd46bf9U025dehdsbxX-8" value="var2" style="text;html=1;strokeColor=none;fillColor=none;align=center;verticalAlign=middle;whiteSpace=wrap;rounded=0;fontSize=20;" vertex="1" parent="1">
          <mxGeometry x="255" y="470" width="60" height="30" as="geometry" />
        </mxCell>
        <mxCell id="7cd46bf9U025dehdsbxX-9" value="var1" style="text;html=1;strokeColor=none;fillColor=none;align=center;verticalAlign=middle;whiteSpace=wrap;rounded=0;fontSize=20;" vertex="1" parent="1">
          <mxGeometry x="255" y="180" width="60" height="30" as="geometry" />
        </mxCell>
        <mxCell id="7cd46bf9U025dehdsbxX-10" value="var3" style="text;html=1;strokeColor=none;fillColor=none;align=center;verticalAlign=middle;whiteSpace=wrap;rounded=0;fontSize=20;" vertex="1" parent="1">
          <mxGeometry x="535" y="390" width="60" height="30" as="geometry" />
        </mxCell>
      </root>
    </mxGraphModel>
  </diagram>
</mxfile>
